<?xml version="1.0" encoding="utf-8"?>
<!-- Generator: Adobe Illustrator 22.0.1, SVG Export Plug-In . SVG Version: 6.00 Build 0)  -->
<svg version="1.1" id="Capa_1" xmlns="http://www.w3.org/2000/svg" xmlns:xlink="http://www.w3.org/1999/xlink" x="0px" y="0px"
	 viewBox="0 0 500 500" style="enable-background:new 0 0 500 500;" xml:space="preserve">
<style type="text/css">
	.st0{fill:#70926C;}
	.st1{fill:#383839;}
	.st2{fill:#E80707;}
	.st3{fill:#FFFFFF;}
	.st4{fill:#DBCABD;}
	.st5{fill:#161616;}
</style>
<g id="Capa_1_1_">
</g>
<polygon class="st0" points="263,129 188,101 177,108 207,199 208,271 206,287 216,369 231,353 234,279 "/>
<polygon class="st1" points="225,238 278,238 271,309 260,337 266,374 256,384 256,399 240,376 242,336 "/>
<path class="st2" d="M305,120l-48,11l-47-10l-14,4l22,39l1,81l63-2l5-80l25-35L305,120z M253,158l-29-13l53-1L253,158z"/>
<path class="st3" d="M236.9,151.7c0,0,1.9,5,4.1,7.1c2.8,2.7,5.7,4.4,7.5,5.4c2,1.1,3,2.8,7.4-1c4.8-4.1,5.7-5,7.2-6.8
	c1.6-1.9,4-5.1,4-5.1L236.9,151.7z"/>
<circle class="st4" cx="251.5" cy="139.5" r="19.5"/>
<polygon class="st5" points="241,332.3 241,299 226.1,245.7 "/>
<path class="st3" d="M218.1,172.7c0,0,22.7-1.3,31.9-1.7c9.2-0.3,18.8-0.2,27,0.8s8.2,1,8.2,1h1.2l-0.1,1.7c0,0-20-1.3-28.4-1.3
	c-8.3,0-20.4,0.5-25.9,0.7c-5.5,0.2-13.9,0.7-13.9,0.7V172.7z"/>
</svg>
