<?xml version="1.0" encoding="utf-8"?>
<!-- Generator: Adobe Illustrator 22.0.1, SVG Export Plug-In . SVG Version: 6.00 Build 0)  -->
<svg version="1.1" xmlns="http://www.w3.org/2000/svg" xmlns:xlink="http://www.w3.org/1999/xlink" x="0px" y="0px"
	 viewBox="0 0 500 500" style="enable-background:new 0 0 500 500;" xml:space="preserve">
<style type="text/css">
	.st0{display:none;}
	.st1{display:inline;}
	.st2{display:inline;fill:#70926C;}
	.st3{display:inline;fill:#383839;}
	.st4{display:inline;fill:#007229;}
	.st5{display:inline;fill:#D3C1B2;}
	.st6{display:inline;fill:#161616;}
	.st7{fill:#383839;}
	.st8{fill:#70926C;}
	.st9{fill:#007229;}
	.st10{fill:#D3C1B2;}
	.st11{fill:#EAEAEA;}
	.st12{fill:#B7B7B7;}
</style>
<g id="Capa_1" class="st0">
	<g id="Capa_1_1_" class="st1">
	</g>
	<polygon class="st2" points="263,129 188,101 177,108 207,199 208,271 206,287 216,369 231,353 234,279 	"/>
	<polygon class="st3" points="225,238 278,238 271,309 260,337 266,374 256,384 256,399 240,376 242,336 	"/>
	<path class="st4" d="M305,120l-48,11l-47-10l-14,4l22,39l1,81l63-2l5-80l25-35L305,120z M253,158l-29-13l53-1L253,158z"/>
	<circle class="st5" cx="251.5" cy="139.5" r="19.5"/>
	<polygon class="st6" points="241,332.3 241,299 226.1,245.7 	"/>
</g>
<g id="Capa_2">
	<g>
		<polygon class="st7" points="218.1,227 215,250.6 230.8,285.3 235.8,294.6 221,309.7 241.5,305.3 250,301.1 244.8,253.1 
			280.4,242.7 288,250.1 268.5,293.6 290.6,309.6 283.7,293.2 300.1,262 308.5,229.5 300.7,218.2 229.3,220.9 		"/>
		<path class="st8" d="M210.9,236.6l-8.4-92.8c0,0-7.4-9.3-8-12.4s0.4-12.2,5.8-16.5c5.4-4.3,18.3-12.1,25.9,1.3
			c7.6,13.4,3.2,13.8,3.2,13.8l63.7,25.5l26.5,63.2l-79-8.9L210.9,236.6z"/>
		<path class="st9" d="M221,189c0,0,12.6-11.4,31.3-12.4c18.7-1,25.7-7.4,39.3-0.1c13.6,7.3,15.5,12.9,19.3,18.9
			c3.8,5.9,14.6,35,14.6,35s-16,39.1-18.6,42.5c-2.6,3.4-7.4,10.7-11.1,11.4c-4.8,0.9-7.9-3.3-6.5-6.3c1.5-3,9.5-19.6,9.5-19.6
			l6-29.6l-7.6-6.6c0,0-21.9,3.8-27.6,4.1c-5.7,0.4-33.8-3.4-35.3-3.4c-1.5,0-5.5,9.4-5.5,9.4s4.5,23.7,7.5,28.1s8.3,14.8,8.4,17.1
			c0,2.2-1.8,6.4-6.3,4.9c-4.5-1.4-14.7-9.9-18.6-18.1c-3.8-8.2-9.3-26.1-9.3-26.1s3.6-36.6,4.4-39.5C216,195.7,221,189,221,189z"/>
		<circle class="st10" cx="269.1" cy="204.3" r="20.6"/>
	</g>
	<path class="st11" d="M292.2,268.4h-51.9c-1.1,0-1.9-0.9-1.9-1.9v-31.3c0-1.1,0.9-1.9,1.9-1.9h51.9c1.1,0,1.9,0.9,1.9,1.9v31.3
		C294.1,267.6,293.3,268.4,292.2,268.4z"/>
	<path class="st11" d="M293.2,277.1h-53.8c-0.5,0-1-0.4-1-1v-6.8c0-0.5,0.4-1,1-1h53.8c0.5,0,1,0.4,1,1v6.8
		C294.1,276.7,293.7,277.1,293.2,277.1z"/>
	<rect x="239.8" y="269.5" class="st7" width="52.5" height="5.3"/>
	<rect x="240" y="248.9" class="st12" width="52.5" height="14"/>
	<rect x="257.1" y="234.9" class="st12" width="17.6" height="10"/>
	<ellipse class="st7" cx="266.2" cy="275.9" rx="0.8" ry="0.5"/>
</g>
</svg>
