<?xml version="1.0" encoding="utf-8"?>
<!-- Generator: Adobe Illustrator 22.0.1, SVG Export Plug-In . SVG Version: 6.00 Build 0)  -->
<svg version="1.1" xmlns="http://www.w3.org/2000/svg" xmlns:xlink="http://www.w3.org/1999/xlink" x="0px" y="0px"
	 viewBox="0 0 500 500" style="enable-background:new 0 0 500 500;" xml:space="preserve">
<style type="text/css">
	.st0{display:none;}
	.st1{display:inline;}
	.st2{display:inline;fill:#70926C;}
	.st3{display:inline;fill:#383839;}
	.st4{display:inline;fill:#00A4FF;}
	.st5{display:inline;fill:#FFFFFF;}
	.st6{display:inline;fill:#D3C1B2;}
	.st7{display:inline;fill:#161616;}
	.st8{fill:#70926C;}
	.st9{fill:#383839;}
	.st10{fill:#161616;}
	.st11{fill:#00A4FF;}
	.st12{fill:#FFFFFF;}
	.st13{fill:#D3C1B2;}
</style>
<g id="Capa_1" class="st0">
	<g id="Capa_1_1_" class="st1">
	</g>
	<polygon class="st2" points="263,129 188,101 177,108 207,199 208,271 206,287 216,369 231,353 234,279 	"/>
	<polygon class="st3" points="225,238 278,238 271,309 260,337 266,374 256,384 256,399 240,376 242,336 	"/>
	<path class="st4" d="M305,120l-48,11l-47-10l-14,4l22,39l1,81l63-2l5-80l25-35L305,120z M253,158l-29-13l53-1L253,158z"/>
	<path class="st5" d="M236.9,151.7c0,0,1.9,5,4.1,7.1c2.8,2.7,5.7,4.4,7.5,5.4c2,1.1,3,2.8,7.4-1c4.8-4.1,5.7-5,7.2-6.8
		c1.6-1.9,4-5.1,4-5.1L236.9,151.7z"/>
	<circle class="st6" cx="251.5" cy="139.5" r="19.5"/>
	<polygon class="st7" points="241,332.3 241,299 226.1,245.7 	"/>
</g>
<g id="Capa_2">
	<g>
		<path class="st8" d="M214.8,122.8c0,0-3.7-3.5-6.1,0c-2.4,3.5,2.5,28,3,42.5c0.5,14.5-8.5,59-8.5,66.5s13,60,11.5,63.5
			c-1.5,3.5-2.8,14,0.1,23c2.9,9,19.3,39.5,23.9,46c4.5,6.5,3.5,14.7,4.5,17c1,2.3-3.6,6.8-1.8,8.5s4.4-0.3,10.2-2
			c5.9-1.7,9.2-12.5,9.2-12.5s0.9,7,2.5,10.5c1.6,3.5-1.2,10.4,1.6,10s8.3-29,8.3-29l-15-26l24.8-36L214.8,122.8z"/>
		<g>
			<path class="st9" d="M288.1,231.8c0,0,1,63,0,66.5s-5.5,26.5-11,34c-5.5,7.5-12.2,46.5-14.3,48.5s-10.7,12-15.2,12
				s-7.5-3.5-5.5-6.5c2-3,12-14,12.5-16s7.3-40.5,8.2-46c0.8-5.5,1.2-20,0-29.5c-1.2-9.5-5.2-34.5-5.2-34.5l9.5-24L288.1,231.8z"/>
			<path class="st10" d="M269.9,357.1c-5.5,7.5-5,21.7-7.2,23.7s-10.7,12-15.2,12s-7.5-3.5-5.5-6.5c2-3,12-14,12.5-16
				s0.1-15.7,1-21.2"/>
			<path class="st9" d="M224.6,231.8l2.5,66c0,0,2,14.5,6.5,22.5c4.5,8,17,29.5,20,35.5c3,6,11,16,12,23.5c1,7.5-3,15.5,0,19
				c3,3.5,9-9,11.5-12c2.5-3,2-10.5,0-13.5s-20-53.9-22.5-57.4c-2.5-3.6-1.5-9.6,0-15.1c1.5-5.5,3-31,3-31l5.2-1.5l14.3-36H224.6z"
				/>
			<path class="st10" d="M243.8,338.1c0,0-8.1-13.4-10.2-17.8s-5.6-17.1-6.1-19.8c-0.4-2.7-1.8-38.1-2-44.7c-0.3-6.6-0.9-24-0.9-24
				h5.2h10c0,0,6,69.7,7.5,85.5s2.1,19,8.4,28.7c6.3,9.7,14.1,21,16.3,28c2.2,7,3.7,12,0,16.2s-6.4,8-6.4,8s-1.6-5.1-0.6-9
				s2.2-2.2,0.6-10c-1.6-7.7-1.8-6.2-6.1-13C255.3,359.5,243.8,338.1,243.8,338.1z"/>
		</g>
		<path class="st11" d="M308.2,118.6L263.1,129l-40.4-15l-14,4l21.4,49l-7.4,75l35.9,14.3l32.5-21l-4.3-61.8l28.4-46.9L308.2,118.6z
			 M259.1,156l-20.3-13.2l44.3-0.8L259.1,156z"/>
		<path class="st12" d="M243.3,151.5c0,0,1.9,5,4.1,7.1c2.8,2.7,5.7,4.4,7.5,5.4c2,1.1,3,2.7,7.4-1c4.8-4.1,5.7-5,7.2-6.8
			c1.6-1.9,3.9-5.1,3.9-5.1L243.3,151.5z"/>
		<circle class="st13" cx="258.3" cy="138.1" r="19.5"/>
	</g>
</g>
</svg>
