<?xml version="1.0" encoding="utf-8"?>
<!-- Generator: Adobe Illustrator 22.0.1, SVG Export Plug-In . SVG Version: 6.00 Build 0)  -->
<svg version="1.1" xmlns="http://www.w3.org/2000/svg" xmlns:xlink="http://www.w3.org/1999/xlink" x="0px" y="0px"
	 viewBox="0 0 500 500" style="enable-background:new 0 0 500 500;" xml:space="preserve">
<style type="text/css">
	.st0{fill:#70926C;}
	.st1{fill:#EFEFEF;}
	.st2{fill:#130FB5;}
	.st3{fill:#D3C1B2;}
	.st4{fill:#8E8E8E;}
	.st5{fill:#EAEAEA;}
	.st6{fill:#383839;}
	.st7{fill:#B7B7B7;}
</style>
<g id="Capa_2">
	<polygon class="st0" points="296.8,217.5 296.8,208.9 304.3,201.5 304.3,184.7 327.5,164 360,192.7 358,208.9 	"/>
</g>
<g id="Capa_1">
	<g id="Capa_1_1_">
	</g>
	<polygon class="st0" points="263,129 188,101 177,108 207,199 208,271 206,287 216,369 231,353 234,279 	"/>
	<polygon class="st1" points="225,238 278,238 271,309 260,337 266,374 256,384 256,399 240,376 242,336 	"/>
	<path class="st2" d="M305,120l-48,11l-47-10l-14,4l22,39l1,81l63-2l5-80l25-35L305,120z M253,158l-29-13l53-1L253,158z"/>
	<circle class="st3" cx="251.5" cy="139.5" r="19.5"/>
	<polygon class="st4" points="241,332.3 241,299 226.1,245.7 	"/>
	<g>
		<path class="st5" d="M358.3,202.9l-36.6,36.7c-0.7,0.7-2,0.8-2.7,0l-22.2-22.1c-0.7-0.7-0.8-2,0-2.7l36.6-36.7
			c0.7-0.7,2-0.8,2.7,0l22.2,22.1C359.1,201,359.1,202.2,358.3,202.9z"/>
		<path class="st5" d="M365.1,208.4l-38,38.1c-0.4,0.4-1,0.4-1.3,0l-4.8-4.8c-0.4-0.4-0.4-1,0-1.3l38-38.1c0.4-0.4,1-0.4,1.3,0
			l4.8,4.8C365.5,207.4,365.5,208,365.1,208.4z"/>
		
			<rect x="316.2" y="221.4" transform="matrix(0.7062 -0.708 0.708 0.7062 -58.0461 308.2388)" class="st6" width="52.5" height="5.3"/>
		
			<rect x="304.9" y="205.5" transform="matrix(0.7062 -0.708 0.708 0.7062 -53.1349 296.8426)" class="st7" width="52.5" height="14"/>
		
			<rect x="310.7" y="196.5" transform="matrix(0.7062 -0.708 0.708 0.7062 -48.7567 285.394)" class="st7" width="17.6" height="10"/>
		
			<ellipse transform="matrix(0.7062 -0.708 0.708 0.7062 -59.0194 310.9781)" class="st6" cx="345.2" cy="226.6" rx="0.8" ry="0.5"/>
	</g>
</g>
</svg>
