<?xml version="1.0" encoding="utf-8"?>
<!-- Generator: Adobe Illustrator 22.0.1, SVG Export Plug-In . SVG Version: 6.00 Build 0)  -->
<svg version="1.1" xmlns="http://www.w3.org/2000/svg" xmlns:xlink="http://www.w3.org/1999/xlink" x="0px" y="0px"
	 viewBox="0 0 500 500" style="enable-background:new 0 0 500 500;" xml:space="preserve">
<style type="text/css">
	.st0{display:none;}
	.st1{display:inline;}
	.st2{display:inline;fill:#70926C;}
	.st3{display:inline;fill:#383839;}
	.st4{display:inline;fill:#1B6815;}
	.st5{display:inline;fill:#161616;}
	.st6{display:inline;fill:#D3C1B2;}
	.st7{fill:#70926C;}
	.st8{fill:#383839;}
	.st9{fill:#161616;}
	.st10{fill:#1B6815;}
	.st11{fill:#FFFFFF;}
	.st12{fill:#D3C1B2;}
</style>
<g id="Capa_2" class="st0">
	
		<image style="display:inline;overflow:visible;" width="79" height="132" xlink:href="B2947EFA.jpg"  transform="matrix(2.4897 0 0 2.4897 324.3149 86.8486)">
	</image>
</g>
<g id="Capa_1" class="st0">
	<g id="Capa_1_1_" class="st1">
	</g>
	<polygon class="st2" points="263,129 188,101 177,108 207,199 208,271 206,287 216,369 231,353 234,279 	"/>
	<polygon class="st3" points="225,238 278,238 271,309 260,337 266,374 256,384 256,399 240,376 242,336 	"/>
	<path class="st4" d="M305,120l-48,11l-47-10l-14,4l22,39l1,81l63-2l5-80l25-35L305,120z M253,158l-29-13l53-1L253,158z"/>
	<polygon class="st5" points="241,332.3 241,299 226.1,245.7 	"/>
	<circle class="st6" cx="251.5" cy="139.5" r="19.5"/>
</g>
<g id="Capa_3">
	<g>
		<path class="st7" d="M207,122.9c0,0-3.7-3.5-6.1,0c-2.4,3.5,2.5,28,3,42.5c0.5,14.5-8.5,59-8.5,66.5s13,60,11.5,63.5
			s-2.8,14,0.1,23c2.9,9,19.3,39.5,23.9,46c4.5,6.5,3.5,14.7,4.5,17c1,2.3-3.6,6.8-1.8,8.5c1.9,1.7,4.4-0.3,10.2-2
			c5.9-1.7,9.2-12.5,9.2-12.5s0.9,7,2.5,10.5c1.6,3.5-1.2,10.4,1.6,10c2.8-0.4,8.3-29,8.3-29l-15-26l24.8-36L207,122.9z"/>
		<g>
			<path class="st8" d="M280.4,231.9c0,0,1,63,0,66.5s-5.5,26.5-11,34s-12.2,46.5-14.3,48.5s-10.7,12-15.2,12s-7.5-3.5-5.5-6.5
				s12-14,12.5-16s7.3-40.5,8.2-46s1.2-20,0-29.5s-5.2-34.5-5.2-34.5l9.5-24L280.4,231.9z"/>
			<path class="st9" d="M262.2,357.2c-5.5,7.5-5,21.7-7.2,23.7s-10.7,12-15.2,12s-7.5-3.5-5.5-6.5s12-14,12.5-16s0.1-15.7,1-21.2"/>
			<path class="st8" d="M216.9,231.9l2.5,66c0,0,2,14.5,6.5,22.5s17,29.5,20,35.5s11,16,12,23.5s-3,15.5,0,19s9-9,11.5-12
				s2-10.5,0-13.5s-20-53.9-22.5-57.4s-1.5-9.6,0-15.1s3-31,3-31l5.2-1.5l14.3-36H216.9z"/>
			<path class="st9" d="M236,338.2c0,0-8.1-13.4-10.2-17.8c-2-4.4-5.6-17.1-6.1-19.8c-0.4-2.7-1.8-38.1-2-44.7
				c-0.3-6.6-0.9-24-0.9-24h5.2h10c0,0,6,69.7,7.5,85.5s2.1,19,8.4,28.8c6.3,9.8,14.1,21,16.3,28s3.8,12,0,16.3s-6.4,8-6.4,8
				s-1.6-5.1-0.6-9c1-4,2.2-2.2,0.6-10s-1.8-6.3-6.1-13C247.5,359.6,236,338.2,236,338.2z"/>
		</g>
		<path class="st10" d="M300.5,118.6l-45.1,10.4l-40.4-15l-14,4l21.4,49l-7.4,75l35.9,14.3l32.5-21l-4.3-61.8l28.4-46.9L300.5,118.6
			z M251.4,156.1L231,142.9l44.4-0.8L251.4,156.1z"/>
		<path class="st11" d="M235.5,151.6c0,0,1.9,5,4.1,7.1c2.8,2.7,5.7,4.4,7.5,5.4c2,1.1,3,2.8,7.4-1c4.8-4.1,5.7-5,7.2-6.8
			c1.6-1.9,4-5.1,4-5.1L235.5,151.6z"/>
		<circle class="st12" cx="250.5" cy="138.2" r="19.5"/>
	</g>
</g>
</svg>
