<?xml version="1.0" encoding="utf-8"?>
<!-- Generator: Adobe Illustrator 22.0.1, SVG Export Plug-In . SVG Version: 6.00 Build 0)  -->
<svg version="1.1" xmlns="http://www.w3.org/2000/svg" xmlns:xlink="http://www.w3.org/1999/xlink" x="0px" y="0px"
	 viewBox="0 0 500 500" style="enable-background:new 0 0 500 500;" xml:space="preserve">
<style type="text/css">
	.st0{display:none;}
	.st1{display:inline;}
	.st2{display:inline;fill:#70926C;}
	.st3{display:inline;fill:#383839;}
	.st4{display:inline;fill:#D4A375;}
	.st5{display:inline;fill:#D3C1B2;}
	.st6{display:inline;fill:#161616;}
	.st7{fill:#383839;}
	.st8{fill:#70926C;}
	.st9{fill:#001ED1;}
	.st10{fill:#D3C1B2;}
</style>
<g id="Capa_2" class="st0">
	
		<image style="display:inline;overflow:visible;" width="138" height="143" xlink:href="../../sentao de pana.jpg"  transform="matrix(2.2246 0 0 2.2246 767 -74.587)">
	</image>
</g>
<g id="Capa_1" class="st0">
	<g id="Capa_1_1_" class="st1">
	</g>
	<polygon class="st2" points="263,129 188,101 177,108 207,199 208,271 206,287 216,369 231,353 234,279 	"/>
	<polygon class="st3" points="225,238 278,238 271,309 260,337 266,374 256,384 256,399 240,376 242,336 	"/>
	<path class="st4" d="M305,120l-48,11l-47-10l-14,4l22,39l1,81l63-2l5-80l25-35L305,120z M253,158l-29-13l53-1L253,158z"/>
	<circle class="st5" cx="251.5" cy="139.5" r="19.5"/>
	<polygon class="st6" points="241,332.3 241,299 226.1,245.7 	"/>
</g>
<g id="Capa_3">
	<g>
		<polygon class="st7" points="222.9,256.4 237.2,275.4 272.7,289.2 282.7,292.3 282.7,313.5 294.4,296.1 297.5,287.1 260.2,256.4 
			278.5,224.1 289.1,224.1 305.5,268.8 332.5,264.8 316.1,257.9 306,224.1 289.3,194.9 275.8,192.3 226.6,244.2 		"/>
		<path class="st8" d="M202.8,239.9l-46.1-83.1c0,0-10.1-6.4-11.6-9s-3.7-11.6,0-17.5c3.7-5.8,13.2-17.5,24.9-7.4s5.3,10.6,5.3,10.6
			l70.9,4.2l46.1,50.8L202.8,239.9z"/>
		<path class="st9" d="M198.5,227.1c0,0,1.1-16.9,13.8-30.7s13.2-23.3,28.1-27.5c14.8-4.2,20.1-1.6,27,0
			c6.9,1.6,34.9,14.8,34.9,14.8s15.9,39.2,16.4,43.4c0.5,4.2,2.1,12.8,0,15.9c-2.8,4-7.9,3.2-9,0c-1.1-3.2-6.9-20.7-6.9-20.7
			l-16.4-25.4l-10.1,0.5c0,0-13.1,18-16.8,22.2c-3.8,4.2-26.6,21.2-27.6,22.2s2.6,10.6,2.6,10.6s19.8,13.8,25,14.8
			c5.2,1.1,16.3,4.8,17.9,6.4c1.6,1.6,3.2,5.8-1.1,7.9s-17.5,3.2-25.9,0s-24.9-12.2-24.9-12.2s-23-28.7-24.5-31.4
			C199.5,235.4,198.5,227.1,198.5,227.1z"/>
		<circle class="st10" cx="243.6" cy="204.5" r="20.6"/>
	</g>
</g>
</svg>
